<svg xmlns="http://www.w3.org/2000/svg" version="1.1" xmlns:xlink="http://www.w3.org/1999/xlink" xmlns:svgjs="http://svgjs.dev/svgjs" width="2000" height="1247" viewBox="0 0 2000 1247"><g transform="matrix(1,0,0,1,-1.2121212121212466,124.95706674027724)"><svg viewBox="0 0 396 247" data-background-color="#282634" preserveAspectRatio="xMidYMid meet" height="1247" width="2000" xmlns="http://www.w3.org/2000/svg" xmlns:xlink="http://www.w3.org/1999/xlink"><g id="tight-bounds" transform="matrix(1,0,0,1,0.2400000000000091,-0.09999999999999432)"><svg viewBox="0 0 395.52 247.2" height="247.2" width="395.52"><g><svg></svg></g><g><svg viewBox="0 0 395.52 247.2" height="247.2" width="395.52"><g transform="matrix(1,0,0,1,91.73898836550116,47.215199999999996)"><svg viewBox="0 0 212.04202326899767 152.7696" height="152.7696" width="212.04202326899767"><g><svg viewBox="0 0 244.43136 176.10509708862824" height="152.7696" width="212.04202326899767"><g transform="matrix(1,0,0,1,0,132.07965929978917)"><svg viewBox="0 0 244.43136 44.02543778883907" height="44.02543778883907" width="244.43136"><g><svg viewBox="0 0 244.43136 44.02543778883907" height="44.02543778883907" width="244.43136"><g><svg viewBox="0 0 244.43136 44.02543778883907" height="44.02543778883907" width="244.43136"><g transform="matrix(1,0,0,1,0,0)"><svg width="244.43136" viewBox="1.09375 -36 202.13625 36.41125" height="44.02543778883907" data-palette-color="#ff4057"><path d="M26.15-33.9Q26.15-33.65 26.08-32.6 26-31.55 26-30L26-30Q26-28.6 26.15-26.2L26.15-26.2Q26.15-24.85 24.4-24.85L24.4-24.85 15.6-24.85 15.5-19.7Q15.45-18.85 15.45-15.45L15.45-15.45Q15.45-11.95 15.5-8.65 15.55-5.35 15.55-2.95L15.55-2.95 15.6-0.9 15.6-0.65Q15.6-0.2 15.48-0.1 15.35 0 15.15 0 14.95 0 14.85 0L14.85 0 11.45 0Q10.85 0 10.75-0.2 10.65-0.4 10.65-0.93 10.65-1.45 10.65-1.7L10.65-1.7 10.85-7.9Q11.15-16 11.15-18.3L11.15-18.3Q11.15-19.6 11.05-22.2L11.05-22.2 11-24.85Q7.4-24.85 3.7-24.75L3.7-24.75 2.15-24.7Q1.5-24.7 1.25-25.05 1-25.4 1.15-25.85L1.15-25.85 1.2-27.1Q1.3-30 1.3-32.45L1.3-32.45Q1.3-33.65 1.25-33.9L1.25-33.9 1.25-34.25Q1.25-34.8 1.48-34.9 1.7-35 2.15-35L2.15-35 7.1-35 9.9-35.05Q12.5-35.15 13.55-35.15L13.55-35.15 16.55-35.1Q20.15-35 22.2-35L22.2-35Q23.7-35 24.15-35.05L24.15-35.05Q25.25-35.1 25.7-34.73 26.15-34.35 26.15-33.9L26.15-33.9ZM39.7-21.5L41.85-21.45Q42.9-21.45 43.8-21.55L43.8-21.55Q44.1-21.6 44.75-21.6L44.75-21.6Q45.45-21.6 45.8-21.55L45.8-21.55 46.95-21.45 47.1-22.95 47.25-25.35 47.35-30.25 47.45-34.1Q47.5-34.85 47.65-35.1 47.8-35.35 48.35-35.4L48.35-35.4Q48.85-35.4 51.15-35.7L51.15-35.7Q51.55-35.75 52.6-35.75L52.6-35.75Q54.2-35.75 55.25-35.6L55.25-35.6Q55.8-35.5 55.92-35.38 56.05-35.25 56.07-34.95 56.1-34.65 56.15-34.4L56.15-34.4Q56.15-33.6 56-31.7L56-31.7Q55.8-28.2 55.8-26.9L55.8-26.9Q55.8-26.25 55.5-22.75L55.5-22.75Q55.2-18.95 55.2-17.8L55.2-17.8 55.3-7.9Q55.3-2.3 55.5-1.05L55.5-1.05 55.5-0.95Q55.5-0.4 55.3-0.28 55.1-0.15 54.85-0.18 54.6-0.2 54.5-0.2L54.5-0.2Q54.1-0.3 53.5-0.3L53.5-0.3Q53.3-0.3 52.2-0.2L52.2-0.2Q50.8-0.05 47.7-0.05L47.7-0.05 47.6-0.05Q46.9-0.05 46.9-0.5L46.9-0.5Q46.9-1.45 46.87-4.25 46.85-7.05 46.7-8.35L46.7-8.35Q46.6-10.25 46.6-12.05L46.6-12.05Q46.55-12.8 46.55-14.35L46.55-14.35 45.1-14.35 42.95-14.3 42.05-14.25 41.05-14.3Q40.3-14.3 39.85-14.35L39.85-14.35 39.7-11.2Q39.55-9.45 39.55-6.65L39.55-6.65 39.55-4.1Q39.55-1.4 39.65-0.85L39.65-0.85Q39.75-0.25 39.47-0.13 39.2 0 38.82 0 38.45 0 38.3 0L38.3 0Q37.9-0.05 36.95-0.13 36-0.2 35.4-0.2L35.4-0.2 33.95-0.1Q33.6-0.05 31.35 0.1L31.35 0.1Q30.2 0.25 30.2-1.3L30.2-1.3 30.25-3.25 30.35-6.85Q30.35-7.95 30.4-8.9L30.4-8.9 30.45-14.7Q30.45-16.7 30.4-17.25L30.4-17.25Q30.25-18.4 30.25-20.25L30.25-20.25 30.3-23.3Q30.35-24.05 30.35-25.25L30.35-25.25Q30.35-26.65 30.65-31.05L30.65-31.05 30.8-34.5Q30.8-34.9 30.95-35.05 31.1-35.2 31.4-35.2L31.4-35.2 32.05-35.15Q32.7-35.05 33.75-35 34.8-34.95 35.8-34.95L35.8-34.95 38.1-35Q38.65-35.05 39.35-35.05L39.35-35.05 39.4-35.05Q39.8-35.05 39.8-34.5L39.8-34.5Q39.85-34.4 39.87-32.52 39.9-30.65 39.9-28.1L39.9-28.1Q39.9-26.5 39.8-23.8L39.8-23.8 39.7-21.5ZM63.65-35.25Q64.3-35.2 64.92-35.23 65.55-35.25 66-35.25L66-35.25Q67.09-35.25 67.59-35.2L67.59-35.2Q68.2-35.15 68.45-34.95 68.7-34.75 68.7-34.4L68.7-34.4Q68.7-34.15 68.65-33.85 68.59-33.55 68.55-33.3L68.55-33.3Q68-29.05 67.95-24.55L67.95-24.55Q67.9-23.25 67.9-20.55L67.9-20.55 67.95-14.5Q68-13.75 68-12.95L68-12.95 68.05-10.95Q68.15-8.35 68.15-7.1L68.15-7.1Q68.15-6.15 68.09-5.95L68.09-5.95Q68.05-5.75 68.05-4.8L68.05-4.8 68.09-2.05Q68.15-1.45 68.15-0.55L68.15-0.55Q68.2 0.1 67.77 0.28 67.34 0.45 66.65 0.4L66.65 0.4 62.1 0.4Q61.35 0.45 61.15 0.08 60.95-0.3 60.9-1.15L60.9-1.15Q60.8-1.5 61-3L61-3Q61.2-4.4 61.2-5.4L61.2-5.4Q61.2-5.75 61.55-12.15L61.55-12.15Q61.85-16.85 61.85-17.3L61.85-17.3 61.95-22.2 62.05-26.75 62.15-29.45 62.25-31.25 62.25-33.35Q62.25-35.3 63.25-35.3L63.25-35.3Q63.5-35.3 63.65-35.25L63.65-35.25ZM74.84-35.2L79.74-35.25 85.19-35.2Q90.39-35.2 91.94-35.05L91.94-35.05Q94.79-34.8 95.99-34.8L95.99-34.8Q96.79-34.8 97.04-34.85L97.04-34.85 97.39-34.9Q97.74-34.9 97.82-34.77 97.89-34.65 97.87-34.48 97.84-34.3 97.84-34.2L97.84-34.2Q97.84-33.75 97.64-32.35L97.64-32.35Q97.59-31.85 97.22-31.35 96.84-30.85 96.04-29.95L96.04-29.95Q96.09-30 94.89-28.65L94.89-28.65Q92.94-26.05 89.74-21.25L89.74-21.25Q89.04-20.15 84.14-13.75L84.14-13.75 83.34-12.7Q82.24-11.2 80.09-8.45L80.09-8.45Q79.64-7.95 78.84-6.6L78.84-6.6 78.09-5.4 76.79-3.25Q79.14-3.2 83.14-3.2L83.14-3.2 90.09-3.15 92.14-3.05 94.54-2.95 97.84-3 97.94-3Q98.34-3 98.32-2.78 98.29-2.55 98.29-2.5L98.29-2.5 98.34-0.9Q98.34-0.3 97.69-0.3L97.69-0.3Q97.54-0.3 96.94-0.4L96.94-0.4Q95.49-0.65 93.74-0.55L93.74-0.55 88.89-0.45 82.09-0.3Q74.64-0.3 73.39-0.15L73.39-0.15 73.09-0.15Q72.59-0.15 72.49-0.35 72.39-0.55 72.42-0.75 72.44-0.95 72.44-1.05L72.44-1.05Q72.44-1.8 73.34-3.1L73.34-3.1Q74.09-4.1 74.39-4.55L74.39-4.55Q79.39-11.35 80.49-12.7L80.49-12.7 83.94-17.1Q88.34-22.7 89.14-23.7L89.14-23.7Q90.79-25.7 92.99-29.1L92.99-29.1 94.99-32.25 91.99-32.25Q88.54-32.25 87.59-32.3L87.59-32.3Q86.04-32.3 84.69-32.35L84.69-32.35Q80.19-32.45 77.19-32.45L77.19-32.45Q75.04-32.45 74.14-32.35L74.14-32.35Q72.24-32.2 72.24-33.05L72.24-33.05Q72.24-34.05 72.44-35L72.44-35Q72.49-35.45 73.04-35.45L73.04-35.45Q73.29-35.45 73.89-35.33 74.49-35.2 74.84-35.2L74.84-35.2ZM129.99-1.3Q130.69-0.65 130.69-0.35L130.69-0.35Q130.69-0.1 130.29-0.1L130.29-0.1Q129.99-0.15 129.59-0.13 129.19-0.1 128.79-0.1L128.79-0.1Q128.29-0.05 127.24-0.05L127.24-0.05Q126.39-0.05 125.97-0.33 125.54-0.6 125.04-1.4L125.04-1.4Q124.89-1.7 124.04-2.8L124.04-2.8Q121.09 0.05 116.59 0.05L116.59 0.05Q111.44 0.05 108.27-2.23 105.09-4.5 103.39-8.1L103.39-8.1Q101.74-11.55 101.34-16.3L101.34-16.3Q101.34-23.65 103.49-27.93 105.64-32.2 108.79-33.85 111.94-35.5 115.39-35.5L115.39-35.5Q120.79-35.5 123.97-32.98 127.14-30.45 128.39-26.98 129.64-23.5 129.64-20.3L129.64-20.3Q129.64-16.9 128.92-12.8 128.19-8.7 126.24-5.55L126.24-5.55Q129.19-1.95 129.99-1.3L129.99-1.3ZM116.09-2.65Q119.64-2.65 122.24-5.25L122.24-5.25 118.54-10.2Q117.99-10.95 117.87-11.25 117.74-11.55 117.99-11.55L117.99-11.55Q118.39-11.55 120.79-11.8L120.79-11.8Q121.54-11.9 121.87-11.58 122.19-11.25 122.39-10.73 122.59-10.2 122.74-9.9L122.74-9.9Q122.89-9.6 124.29-7.9L124.29-7.9Q125.59-10.1 126.27-12.75 126.94-15.4 126.94-17.8L126.94-17.8Q126.94-23.85 124.47-28.28 121.99-32.7 115.34-32.7L115.34-32.7Q113.49-32.7 110.72-31.13 107.94-29.55 105.82-26.28 103.69-23 103.69-18.15L103.69-18.15Q103.69-10.4 106.97-6.53 110.24-2.65 116.09-2.65L116.09-2.65ZM145.54-34.9L145.54-14.9Q145.54-13.8 145.66-13 145.79-12.2 146.41-11.48 147.04-10.75 148.44-10.75L148.44-10.75Q150.39-10.75 151.09-12.23 151.79-13.7 151.79-15.45L151.79-15.45 151.84-17.95Q151.99-23.5 151.99-24.15L151.99-24.15Q151.99-25.55 151.94-26.05L151.94-26.05Q151.94-27.8 151.74-31.4L151.74-31.4 151.64-34.15Q151.64-35.05 151.89-35.4 152.14-35.75 152.84-35.75L152.84-35.75 159.19-35.75 159.94-35.8Q160.44-35.8 160.76-35.5 161.09-35.2 161.19-34.3L161.19-34.3Q161.29-33.45 161.29-28.4L161.29-28.4 161.24-17.65Q161.24-14.85 160.34-10.93 159.44-7 156.59-3.65 153.74-0.3 148.44-0.3L148.44-0.3Q136.54-0.3 135.64-11.7L135.64-11.7Q135.59-12.2 135.59-13.7L135.59-13.7Q135.59-15.25 135.69-19.15L135.69-19.15Q135.84-23.65 135.79-25.85L135.79-25.85Q135.79-28.85 135.69-32.15L135.69-32.15Q135.64-33.1 135.64-34.1L135.64-34.1Q135.64-34.3 135.61-34.85 135.59-35.4 135.81-35.65 136.04-35.9 136.64-35.9L136.64-35.9 139.54-35.85Q140.54-35.85 140.99-35.9L140.99-35.9Q142.09-36 142.79-36L142.79-36 144.79-35.95Q145.24-35.95 145.36-35.73 145.49-35.5 145.54-34.9L145.54-34.9ZM168.53-35.25Q169.19-35.2 169.81-35.23 170.44-35.25 170.88-35.25L170.88-35.25Q171.98-35.25 172.48-35.2L172.48-35.2Q173.08-35.15 173.33-34.95 173.58-34.75 173.58-34.4L173.58-34.4Q173.58-34.15 173.53-33.85 173.48-33.55 173.44-33.3L173.44-33.3Q172.88-29.05 172.83-24.55L172.83-24.55Q172.78-23.25 172.78-20.55L172.78-20.55 172.83-14.5Q172.88-13.75 172.88-12.95L172.88-12.95 172.94-10.95Q173.03-8.35 173.03-7.1L173.03-7.1Q173.03-6.15 172.98-5.95L172.98-5.95Q172.94-5.75 172.94-4.8L172.94-4.8 172.98-2.05Q173.03-1.45 173.03-0.55L173.03-0.55Q173.08 0.1 172.66 0.28 172.23 0.45 171.53 0.4L171.53 0.4 166.98 0.4Q166.23 0.45 166.03 0.08 165.83-0.3 165.78-1.15L165.78-1.15Q165.69-1.5 165.88-3L165.88-3Q166.08-4.4 166.08-5.4L166.08-5.4Q166.08-5.75 166.44-12.15L166.44-12.15Q166.73-16.85 166.73-17.3L166.73-17.3 166.83-22.2 166.94-26.75 167.03-29.45 167.13-31.25 167.13-33.35Q167.13-35.3 168.13-35.3L168.13-35.3Q168.38-35.3 168.53-35.25L168.53-35.25ZM179.73-35.2L184.63-35.25 190.08-35.2Q195.28-35.2 196.83-35.05L196.83-35.05Q199.68-34.8 200.88-34.8L200.88-34.8Q201.68-34.8 201.93-34.85L201.93-34.85 202.28-34.9Q202.63-34.9 202.71-34.77 202.78-34.65 202.76-34.48 202.73-34.3 202.73-34.2L202.73-34.2Q202.73-33.75 202.53-32.35L202.53-32.35Q202.48-31.85 202.11-31.35 201.73-30.85 200.93-29.95L200.93-29.95Q200.98-30 199.78-28.65L199.78-28.65Q197.83-26.05 194.63-21.25L194.63-21.25Q193.93-20.15 189.03-13.75L189.03-13.75 188.23-12.7Q187.13-11.2 184.98-8.45L184.98-8.45Q184.53-7.95 183.73-6.6L183.73-6.6 182.98-5.4 181.68-3.25Q184.03-3.2 188.03-3.2L188.03-3.2 194.98-3.15 197.03-3.05 199.43-2.95 202.73-3 202.83-3Q203.23-3 203.21-2.78 203.18-2.55 203.18-2.5L203.18-2.5 203.23-0.9Q203.23-0.3 202.58-0.3L202.58-0.3Q202.43-0.3 201.83-0.4L201.83-0.4Q200.38-0.65 198.63-0.55L198.63-0.55 193.78-0.45 186.98-0.3Q179.53-0.3 178.28-0.15L178.28-0.15 177.98-0.15Q177.48-0.15 177.38-0.35 177.28-0.55 177.31-0.75 177.33-0.95 177.33-1.05L177.33-1.05Q177.33-1.8 178.23-3.1L178.23-3.1Q178.98-4.1 179.28-4.55L179.28-4.55Q184.28-11.35 185.38-12.7L185.38-12.7 188.83-17.1Q193.23-22.7 194.03-23.7L194.03-23.7Q195.68-25.7 197.88-29.1L197.88-29.1 199.88-32.25 196.88-32.25Q193.43-32.25 192.48-32.3L192.48-32.3Q190.93-32.3 189.58-32.35L189.58-32.35Q185.08-32.45 182.08-32.45L182.08-32.45Q179.93-32.45 179.03-32.35L179.03-32.35Q177.13-32.2 177.13-33.05L177.13-33.05Q177.13-34.05 177.33-35L177.33-35Q177.38-35.45 177.93-35.45L177.93-35.45Q178.18-35.45 178.78-35.33 179.38-35.2 179.73-35.2L179.73-35.2Z" opacity="1" transform="matrix(1,0,0,1,0,0)" fill="#ff4057" class="undefined-text-0" data-fill-palette-color="primary" id="text-0"></path></svg></g></svg></g></svg></g></svg></g><g transform="matrix(1,0,0,1,61.37300094011076,0)"><svg viewBox="0 0 121.6853581197785 121.6863100483512" height="121.6863100483512" width="121.6853581197785"><g><svg xmlns="http://www.w3.org/2000/svg" xmlns:xlink="http://www.w3.org/1999/xlink" version="1.1" x="0" y="0" viewBox="1 0.9995149821439567 62 62.00048501785604" style="enable-background:new 0 0 64 64;" xml:space="preserve" height="121.6863100483512" width="121.6853581197785" class="icon-icon-0" data-fill-palette-color="accent" id="icon-0"><g fill="#dcdcdc" data-fill-palette-color="accent"><path d="M52 31H38.619C41.858 28.849 44 25.171 44 21c0-2.252-0.623-4.417-1.799-6.311 0.455-0.709 0.726-1.539 0.772-2.431l3.955-9.887c0.141-0.353 0.07-0.754-0.183-1.037-0.253-0.284-0.644-0.399-1.009-0.299L34.866 4h-5.732L18.263 1.035c-0.366-0.1-0.757 0.016-1.009 0.299-0.253 0.283-0.323 0.685-0.183 1.037l3.955 9.887c0.047 0.892 0.317 1.722 0.772 2.431C20.623 16.584 20 18.749 20 21c0 4.171 2.142 7.849 5.381 10H14c-1.654 0-3 1.346-3 3v6c0 0.352 0.072 0.686 0.184 1H8c-1.654 0-3 1.346-3 3v6c0 1.654 1.346 3 3 3h3.184C11.072 53.314 11 53.648 11 54v6c0 1.654 1.346 3 3 3h38c0.553 0 1-0.447 1-1V52c0-0.553-0.447-1-1-1h-5v-8h5c0.553 0 1-0.447 1-1V32C53 31.448 52.553 31 52 31zM27 26c0-1.614 0.763-3.078 2.027-4.011l2.115 3.526C31.323 25.816 31.648 26 32 26s0.677-0.184 0.857-0.485l2.115-3.526C36.237 22.922 37 24.386 37 26c0 2.757-2.243 5-5 5S27 28.757 27 26zM30.016 19.749C30.14 18.764 30.982 18 32 18s1.86 0.764 1.984 1.749L32 23.056 30.016 19.749zM38 15c-1.654 0-3-1.346-3-3s1.346-3 3-3 3 1.346 3 3S39.654 15 38 15zM28.737 5.965C28.822 5.988 28.911 6 29 6h6c0.089 0 0.178-0.012 0.263-0.035l9.063-2.472-2.252 5.628C41.168 7.842 39.683 7 38 7c-1.704 0-3.208 0.86-4.111 2.165-1.249-0.198-2.532-0.197-3.779 0C29.207 7.86 27.704 7 26 7c-1.683 0-3.168 0.842-4.074 2.121l-2.252-5.628L28.737 5.965zM23 12c0-1.654 1.346-3 3-3s3 1.346 3 3-1.346 3-3 3S23 13.654 23 12zM22 21c0-1.709 0.434-3.358 1.25-4.831C24.04 16.691 24.984 17 26 17c2.757 0 5-2.243 5-5 0-0.321-0.037-0.633-0.095-0.938 0.725-0.078 1.463-0.075 2.189 0.003C33.037 11.369 33 11.68 33 12c0 2.757 2.243 5 5 5 1.016 0 1.96-0.309 2.75-0.831C41.566 17.642 42 19.29 42 21c0 3.033-1.362 5.749-3.5 7.584C38.819 27.784 39 26.913 39 26c0-2.344-1.14-4.472-3.032-5.766C35.987 20.157 36 20.079 36 20c0-2.206-1.794-4-4-4s-4 1.794-4 4c0 0.079 0.013 0.157 0.032 0.234C26.14 21.528 25 23.656 25 26c0 0.913 0.181 1.784 0.5 2.584C23.362 26.749 22 24.033 22 21zM13 40v-6c0-0.552 0.448-1 1-1h3v8h-3C13.448 41 13 40.552 13 40zM7 50v-6c0-0.552 0.448-1 1-1h3v8H8C7.448 51 7 50.552 7 50zM13 60v-6c0-0.552 0.448-1 1-1h3v8h-3C13.448 61 13 60.552 13 60zM51 57h-6v2h6v2H19v-4h24v-2H19v-2h27 5V57zM45 47h-6v2h6v2H14h-1v-4h24v-2H13v-2h1 31V47zM46 41H19v-4h24v-2H19v-2h32v4h-6v2h6v2H46z" fill="#dcdcdc" data-fill-palette-color="accent"></path><path d="M25.5 13c0.827 0 1.5-0.673 1.5-1.5S26.327 10 25.5 10 24 10.673 24 11.5 24.673 13 25.5 13zM25.5 11c0.275 0 0.5 0.224 0.5 0.5S25.775 12 25.5 12 25 11.776 25 11.5 25.225 11 25.5 11z" fill="#dcdcdc" data-fill-palette-color="accent"></path><path d="M37.5 10c-0.827 0-1.5 0.673-1.5 1.5s0.673 1.5 1.5 1.5 1.5-0.673 1.5-1.5S38.327 10 37.5 10zM37.5 12c-0.275 0-0.5-0.224-0.5-0.5s0.225-0.5 0.5-0.5 0.5 0.224 0.5 0.5S37.775 12 37.5 12z" fill="#dcdcdc" data-fill-palette-color="accent"></path><path d="M51 11c-1.654 0-3 1.346-3 3s1.346 3 3 3 3-1.346 3-3S52.654 11 51 11zM51 15c-0.552 0-1-0.449-1-1s0.448-1 1-1 1 0.449 1 1S51.552 15 51 15z" fill="#dcdcdc" data-fill-palette-color="accent"></path><path d="M58 1c-2.757 0-5 2.243-5 5s2.243 5 5 5 5-2.243 5-5S60.757 1 58 1zM58 9c-1.654 0-3-1.346-3-3s1.346-3 3-3 3 1.346 3 3S59.654 9 58 9z" fill="#dcdcdc" data-fill-palette-color="accent"></path><path d="M10 14c0 1.654 1.346 3 3 3s3-1.346 3-3-1.346-3-3-3S10 12.346 10 14zM13 13c0.552 0 1 0.449 1 1s-0.448 1-1 1-1-0.449-1-1S12.448 13 13 13z" fill="#dcdcdc" data-fill-palette-color="accent"></path><path d="M11 6c0-2.757-2.243-5-5-5S1 3.243 1 6s2.243 5 5 5S11 8.757 11 6zM3 6c0-1.654 1.346-3 3-3s3 1.346 3 3S7.654 9 6 9 3 7.654 3 6z" fill="#dcdcdc" data-fill-palette-color="accent"></path></g></svg></g></svg></g><g></g></svg></g></svg></g><g><path d="M134.934 38.199A106.021 106.021 0 0 1 260.586 38.199L257.142 38.199A102.577 102.577 0 0 0 138.378 38.199L134.934 38.199M134.934 209.001A106.021 106.021 0 0 0 260.586 209.001L257.142 209.001A102.577 102.577 0 0 1 138.378 209.001L134.934 209.001" fill="#ff4057" stroke="transparent" data-fill-palette-color="tertiary"></path></g></svg></g><defs></defs></svg><rect width="395.52" height="247.2" fill="none" stroke="none" visibility="hidden"></rect></g></svg></g></svg>