<svg xmlns="http://www.w3.org/2000/svg" version="1.1" xmlns:xlink="http://www.w3.org/1999/xlink" xmlns:svgjs="http://svgjs.dev/svgjs" width="128" height="128" viewBox="0 0 128 128"><g transform="matrix(0.8046875,0,0,0.8046875,12.333870967741937,12.333870967741937)"><svg viewBox="0 0 155 155" data-background-color="#282634" preserveAspectRatio="xMidYMid meet" height="128" width="128" xmlns="http://www.w3.org/2000/svg" xmlns:xlink="http://www.w3.org/1999/xlink"><g id="tight-bounds" transform="matrix(1,0,0,1,0.25,0.25)"><svg viewBox="0 0 154.5 154.5" height="154.5" width="154.5"><g><svg></svg></g><g><svg viewBox="0 0 154.5 154.5" height="154.5" width="154.5"><g transform="matrix(1,0,0,1,59.016899913146986,59.016757278)"><svg viewBox="0 0 36.46620017370602 36.46648544399999" height="36.46648544399999" width="36.46620017370602"><g><svg viewBox="0 0 36.46620017370602 36.46648544399999" height="36.46648544399999" width="36.46620017370602"><g><svg viewBox="0 0 36.46620017370602 36.46648544399999" height="36.46648544399999" width="36.46620017370602"><g><svg viewBox="0 0 36.46620017370602 36.46648544399999" height="36.46648544399999" width="36.46620017370602"><g><svg viewBox="0 0 36.46620017370602 36.46648544399999" height="36.46648544399999" width="36.46620017370602"><g><svg viewBox="0 0 36.46620017370602 36.46648544399999" height="36.46648544399999" width="36.46620017370602"><g><svg xmlns="http://www.w3.org/2000/svg" xmlns:xlink="http://www.w3.org/1999/xlink" version="1.1" x="0" y="0" viewBox="1 0.9995149821439567 62 62.00048501785604" style="enable-background:new 0 0 64 64;" xml:space="preserve" height="36.46648544399999" width="36.46620017370602" class="icon-icon-0" data-fill-palette-color="accent" id="icon-0"><g fill="#dcdcdc" data-fill-palette-color="accent"><path d="M52 31H38.619C41.858 28.849 44 25.171 44 21c0-2.252-0.623-4.417-1.799-6.311 0.455-0.709 0.726-1.539 0.772-2.431l3.955-9.887c0.141-0.353 0.07-0.754-0.183-1.037-0.253-0.284-0.644-0.399-1.009-0.299L34.866 4h-5.732L18.263 1.035c-0.366-0.1-0.757 0.016-1.009 0.299-0.253 0.283-0.323 0.685-0.183 1.037l3.955 9.887c0.047 0.892 0.317 1.722 0.772 2.431C20.623 16.584 20 18.749 20 21c0 4.171 2.142 7.849 5.381 10H14c-1.654 0-3 1.346-3 3v6c0 0.352 0.072 0.686 0.184 1H8c-1.654 0-3 1.346-3 3v6c0 1.654 1.346 3 3 3h3.184C11.072 53.314 11 53.648 11 54v6c0 1.654 1.346 3 3 3h38c0.553 0 1-0.447 1-1V52c0-0.553-0.447-1-1-1h-5v-8h5c0.553 0 1-0.447 1-1V32C53 31.448 52.553 31 52 31zM27 26c0-1.614 0.763-3.078 2.027-4.011l2.115 3.526C31.323 25.816 31.648 26 32 26s0.677-0.184 0.857-0.485l2.115-3.526C36.237 22.922 37 24.386 37 26c0 2.757-2.243 5-5 5S27 28.757 27 26zM30.016 19.749C30.14 18.764 30.982 18 32 18s1.86 0.764 1.984 1.749L32 23.056 30.016 19.749zM38 15c-1.654 0-3-1.346-3-3s1.346-3 3-3 3 1.346 3 3S39.654 15 38 15zM28.737 5.965C28.822 5.988 28.911 6 29 6h6c0.089 0 0.178-0.012 0.263-0.035l9.063-2.472-2.252 5.628C41.168 7.842 39.683 7 38 7c-1.704 0-3.208 0.86-4.111 2.165-1.249-0.198-2.532-0.197-3.779 0C29.207 7.86 27.704 7 26 7c-1.683 0-3.168 0.842-4.074 2.121l-2.252-5.628L28.737 5.965zM23 12c0-1.654 1.346-3 3-3s3 1.346 3 3-1.346 3-3 3S23 13.654 23 12zM22 21c0-1.709 0.434-3.358 1.25-4.831C24.04 16.691 24.984 17 26 17c2.757 0 5-2.243 5-5 0-0.321-0.037-0.633-0.095-0.938 0.725-0.078 1.463-0.075 2.189 0.003C33.037 11.369 33 11.68 33 12c0 2.757 2.243 5 5 5 1.016 0 1.96-0.309 2.75-0.831C41.566 17.642 42 19.29 42 21c0 3.033-1.362 5.749-3.5 7.584C38.819 27.784 39 26.913 39 26c0-2.344-1.14-4.472-3.032-5.766C35.987 20.157 36 20.079 36 20c0-2.206-1.794-4-4-4s-4 1.794-4 4c0 0.079 0.013 0.157 0.032 0.234C26.14 21.528 25 23.656 25 26c0 0.913 0.181 1.784 0.5 2.584C23.362 26.749 22 24.033 22 21zM13 40v-6c0-0.552 0.448-1 1-1h3v8h-3C13.448 41 13 40.552 13 40zM7 50v-6c0-0.552 0.448-1 1-1h3v8H8C7.448 51 7 50.552 7 50zM13 60v-6c0-0.552 0.448-1 1-1h3v8h-3C13.448 61 13 60.552 13 60zM51 57h-6v2h6v2H19v-4h24v-2H19v-2h27 5V57zM45 47h-6v2h6v2H14h-1v-4h24v-2H13v-2h1 31V47zM46 41H19v-4h24v-2H19v-2h32v4h-6v2h6v2H46z" fill="#ffffff" data-fill-palette-color="accent"></path><path d="M25.5 13c0.827 0 1.5-0.673 1.5-1.5S26.327 10 25.5 10 24 10.673 24 11.5 24.673 13 25.5 13zM25.5 11c0.275 0 0.5 0.224 0.5 0.5S25.775 12 25.5 12 25 11.776 25 11.5 25.225 11 25.5 11z" fill="#ffffff" data-fill-palette-color="accent"></path><path d="M37.5 10c-0.827 0-1.5 0.673-1.5 1.5s0.673 1.5 1.5 1.5 1.5-0.673 1.5-1.5S38.327 10 37.5 10zM37.5 12c-0.275 0-0.5-0.224-0.5-0.5s0.225-0.5 0.5-0.5 0.5 0.224 0.5 0.5S37.775 12 37.5 12z" fill="#ffffff" data-fill-palette-color="accent"></path><path d="M51 11c-1.654 0-3 1.346-3 3s1.346 3 3 3 3-1.346 3-3S52.654 11 51 11zM51 15c-0.552 0-1-0.449-1-1s0.448-1 1-1 1 0.449 1 1S51.552 15 51 15z" fill="#ffffff" data-fill-palette-color="accent"></path><path d="M58 1c-2.757 0-5 2.243-5 5s2.243 5 5 5 5-2.243 5-5S60.757 1 58 1zM58 9c-1.654 0-3-1.346-3-3s1.346-3 3-3 3 1.346 3 3S59.654 9 58 9z" fill="#ffffff" data-fill-palette-color="accent"></path><path d="M10 14c0 1.654 1.346 3 3 3s3-1.346 3-3-1.346-3-3-3S10 12.346 10 14zM13 13c0.552 0 1 0.449 1 1s-0.448 1-1 1-1-0.449-1-1S12.448 13 13 13z" fill="#ffffff" data-fill-palette-color="accent"></path><path d="M11 6c0-2.757-2.243-5-5-5S1 3.243 1 6s2.243 5 5 5S11 8.757 11 6zM3 6c0-1.654 1.346-3 3-3s3 1.346 3 3S7.654 9 6 9 3 7.654 3 6z" fill="#ffffff" data-fill-palette-color="accent"></path></g></svg></g></svg></g></svg></g></svg></g></svg></g><g></g></svg></g></svg></g><g></g></svg></g><defs></defs></svg><rect width="154.5" height="154.5" fill="none" stroke="none" visibility="hidden"></rect></g></svg></g></svg>